<svg version="1.1" id="Layer_1" xmlns="http://www.w3.org/2000/svg" xmlns:xlink="http://www.w3.org/1999/xlink" x="0px" y="0px"
	 width="100%" viewBox="0 0 279 75" enable-background="new 0 0 279 75" xml:space="preserve">
<path fill="#63BA59" opacity="1.000000" stroke="none" 
	d="
M34.000000,76.000000 
	C23.030348,76.000000 12.060697,76.000000 1.045522,76.000000 
	C1.045522,51.099388 1.045522,26.198677 1.045522,1.000000 
	C17.686378,1.000000 34.374531,1.000000 51.531654,1.441898 
	C50.331150,10.838885 48.661671,19.793976 46.531265,28.799221 
	C42.121235,28.849379 38.172134,28.849379 33.690338,28.849379 
	C33.690338,36.274773 33.563801,43.078709 33.833107,49.866936 
	C33.871452,50.833508 35.829948,51.723900 37.043026,53.043388 
	C37.229420,56.158489 38.353275,59.612244 37.103024,61.456879 
	C33.970917,66.078026 33.899437,70.922676 34.000000,76.000000 
z"/>
<path fill="#6CBC59" opacity="1.000000" stroke="none" 
	d="
M34.468658,76.000000 
	C33.899437,70.922676 33.970917,66.078026 37.103024,61.456879 
	C38.353275,59.612244 37.229420,56.158489 37.215488,52.698444 
	C38.340099,44.519833 38.429886,44.893818 46.068916,43.059853 
	C48.565887,42.460381 51.524197,39.742298 52.399029,37.317547 
	C53.937630,33.053036 50.998199,30.247644 46.992195,28.749065 
	C48.661671,19.793976 50.331150,10.838885 52.000313,1.441898 
	C65.020897,1.000000 78.041786,1.000000 91.531212,1.423025 
	C90.222527,9.589404 88.452827,17.334509 86.649384,25.071743 
	C86.541512,25.534552 86.238083,26.007372 85.899994,26.352396 
	C82.199989,30.128246 82.423645,34.342503 84.461868,39.032913 
	C84.200500,39.922905 83.933647,40.554707 83.213501,41.328503 
	C81.962143,41.973473 81.164070,42.476444 80.179810,42.646935 
	C76.523720,33.761112 76.523720,33.761112 72.902542,34.002102 
	C74.803772,39.081528 76.550774,44.035267 78.514809,48.901409 
	C79.966721,52.498661 79.802391,55.260426 75.834999,57.113075 
	C75.211121,57.404408 75.255844,59.127529 74.985298,60.596771 
	C73.319443,66.003281 71.659721,71.001640 70.000000,76.000000 
	C58.312439,76.000000 46.624878,76.000000 34.468658,76.000000 
M71.431068,49.616283 
	C71.206902,46.151028 71.100334,42.673111 70.728943,39.223705 
	C70.259827,34.866722 67.542664,32.962627 62.555828,33.237015 
	C58.296864,33.471352 57.030804,34.650284 56.857979,38.542767 
	C64.636879,36.867519 64.636879,36.867519 65.755913,39.682152 
	C64.384499,39.800636 63.041061,39.726059 61.807930,40.059464 
	C58.296612,41.008816 55.142845,42.480755 55.065746,46.842159 
	C54.978825,51.758759 58.291237,53.363155 65.522163,51.700222 
	C66.357803,51.703197 67.193443,51.706169 68.759399,52.114811 
	C69.850525,52.144474 70.941643,52.174137 72.533989,52.195728 
	C72.345825,51.565853 72.157661,50.935974 71.431068,49.616283 
z"/>
<path fill="#88C24C" opacity="1.000000" stroke="none" 
	d="
M256.000000,0.999999 
	C263.975281,1.000000 271.950531,1.000000 279.962891,1.000000 
	C279.962891,25.897966 279.962891,50.795998 279.962891,76.000000 
	C265.980591,76.000000 251.958954,76.000000 237.468338,75.549133 
	C237.993484,69.988365 238.987610,64.878479 240.183746,59.517952 
	C243.878113,51.271641 247.408447,43.291779 250.759171,35.237194 
	C250.941193,34.799610 249.621323,33.737240 249.096527,32.596439 
	C250.334503,27.266188 251.523590,22.315441 252.605911,17.341461 
	C253.788773,11.905512 254.872864,6.448072 256.000000,0.999999 
z"/>
<path fill="#71BD57" opacity="1.000000" stroke="none" 
	d="
M84.456375,38.774719 
	C82.423645,34.342503 82.199989,30.128246 85.899994,26.352396 
	C86.238083,26.007372 86.541512,25.534552 86.649384,25.071743 
	C88.452827,17.334509 90.222527,9.589404 91.999870,1.423025 
	C103.687561,1.000000 115.375122,1.000000 127.482552,1.379605 
	C126.467224,6.864952 124.945656,11.948479 123.624893,17.083652 
	C122.616692,21.003580 121.862839,24.988924 120.825256,29.256329 
	C118.596542,34.703285 116.538429,39.839085 114.480309,44.974880 
	C111.417236,40.230976 109.759079,35.560093 107.642838,31.106899 
	C107.129623,30.026941 105.154907,29.377131 103.749313,29.140253 
	C103.304367,29.065273 102.014160,30.958691 101.983246,31.977766 
	C101.806465,37.804585 101.804535,43.642010 101.977173,49.468899 
	C102.005783,50.434586 103.187248,51.366116 103.835953,52.313431 
	C104.417549,51.302197 105.426033,50.321365 105.500633,49.274010 
	C105.723587,46.143944 105.580750,42.987827 105.580750,39.841881 
	C106.041260,39.832069 106.501762,39.822258 106.962273,39.812443 
	C108.980675,44.111729 110.999084,48.411015 112.973068,53.140175 
	C112.129486,57.760895 111.409813,61.968975 110.505913,66.137108 
	C109.787445,69.450073 108.843719,72.714195 108.000000,76.000000 
	C95.645775,76.000000 83.291542,76.000000 70.468658,76.000000 
	C71.659721,71.001640 73.319443,66.003281 75.358185,60.508492 
	C77.462807,59.202404 80.147636,58.833618 80.755836,57.510368 
	C84.277077,49.849197 87.308784,41.963028 90.670563,33.751431 
	C85.032974,32.712627 86.064148,37.048801 84.456375,38.774719 
z"/>
<path fill="#80C151" opacity="1.000000" stroke="none" 
	d="
M209.000000,76.000000 
	C199.312439,76.000000 189.624878,76.000000 179.468781,75.556000 
	C179.467010,71.906883 179.720932,68.652229 180.452606,65.508781 
	C181.443375,61.252171 182.800552,57.080860 184.375809,52.760536 
	C187.481323,52.400406 190.211563,52.152687 193.214157,51.880260 
	C193.214157,46.877922 193.345505,41.897385 193.113190,36.933868 
	C193.061188,35.822624 191.734879,34.771019 191.016632,33.301895 
	C192.325424,26.747736 193.577408,20.575968 194.911972,14.422107 
	C195.884903,9.935837 196.966721,5.473182 198.000000,1.000000 
	C207.354233,1.000000 216.708450,1.000000 226.531830,1.457656 
	C226.579041,6.176344 227.512558,11.316203 225.442612,14.508713 
	C221.573776,20.475695 222.331863,27.233841 219.905640,33.556019 
	C218.654709,34.908112 217.609238,36.049171 216.177292,37.157623 
	C215.016357,37.082020 214.241898,37.039021 213.382538,36.552658 
	C213.261795,34.127052 213.409378,32.117264 213.117493,30.173470 
	C212.956879,29.103962 212.056992,28.145470 211.490417,27.136925 
	C210.788330,28.030022 209.845291,28.828497 209.447632,29.841137 
	C208.992462,31.000244 209.021759,32.349594 208.842560,33.602276 
	C201.292816,32.838791 198.983978,33.737530 197.799927,38.387802 
	C197.202667,40.733528 197.081070,43.314556 197.314789,45.734093 
	C197.814331,50.905495 200.560349,52.938225 205.689804,52.505966 
	C207.789841,52.328995 209.903076,52.308773 212.259338,52.288223 
	C212.679947,52.378094 212.851547,52.396984 213.017807,52.843231 
	C212.410767,57.507027 211.906433,61.760330 211.176529,65.974564 
	C210.593445,69.341049 209.735794,72.659966 209.000000,76.000000 
z"/>
<path fill="#86C251" opacity="1.000000" stroke="none" 
	d="
M220.111099,33.344986 
	C222.331863,27.233841 221.573776,20.475695 225.442612,14.508713 
	C227.512558,11.316203 226.579041,6.176344 227.000488,1.457656 
	C236.354233,1.000000 245.708450,1.000000 255.531342,0.999999 
	C254.872864,6.448072 253.788773,11.905512 252.605911,17.341461 
	C251.523590,22.315441 250.334503,27.266188 248.798248,32.766010 
	C246.569168,37.344280 244.734329,41.383713 242.735779,45.783585 
	C236.439209,33.772915 236.439209,33.772915 234.372589,34.140079 
	C234.395828,34.619804 234.305283,35.148212 234.461304,35.589447 
	C235.624466,38.879120 236.817139,42.158730 238.036896,45.427940 
	C241.064346,53.542019 241.072128,53.539116 234.268066,59.281567 
	C236.687546,59.487797 238.334656,59.628193 239.981750,59.768589 
	C238.987610,64.878479 237.993484,69.988365 236.999680,75.549133 
	C227.979111,76.000000 218.958206,76.000000 209.468658,76.000000 
	C209.735794,72.659966 210.593445,69.341049 211.176529,65.974564 
	C211.906433,61.760330 212.410767,57.507027 213.070282,52.526535 
	C213.071899,50.527821 213.015701,49.273159 213.040039,47.564602 
	C213.236206,43.739147 213.351822,40.367584 213.467438,36.996025 
	C214.241898,37.039021 215.016357,37.082020 216.124634,37.603195 
	C214.578369,51.184868 217.144547,53.518475 232.068787,51.732014 
	C232.068787,46.028183 232.260788,40.243401 231.978958,34.481792 
	C231.857925,32.007236 230.753021,29.580807 230.095139,27.132515 
	C229.083267,29.143324 228.071381,31.154131 226.968903,33.344986 
	C225.014816,33.344986 222.562958,33.344986 220.111099,33.344986 
z"/>
<path fill="#78BF53" opacity="1.000000" stroke="none" 
	d="
M152.000000,1.000000 
	C159.687576,1.000000 167.375168,1.000000 175.425995,1.340774 
	C174.520386,6.390234 173.262390,11.101889 171.977310,15.806142 
	C171.464310,17.684042 170.917038,19.553534 170.339523,21.412611 
	C169.582199,23.850470 168.779572,26.274252 167.541946,28.766174 
	C163.834778,28.828259 160.582092,28.828259 156.727692,28.828259 
	C156.727692,36.326092 156.639145,43.201977 156.828781,50.070171 
	C156.855423,51.034592 158.244080,51.961407 158.999451,53.346062 
	C158.068329,59.699512 158.950333,65.990791 154.874466,71.249527 
	C153.998352,72.379890 154.261597,74.393341 154.000000,76.000000 
	C146.979050,76.000000 139.958099,76.000000 132.398010,75.647369 
	C132.240387,70.243317 132.621887,65.191887 133.269806,59.927513 
	C134.295609,59.076344 135.416550,58.589851 135.758026,57.776226 
	C138.890961,50.311283 141.932159,42.806206 144.819565,35.243893 
	C144.995941,34.781914 143.642181,33.735710 143.005508,32.561584 
	C145.091782,25.602682 147.266342,19.071163 149.217941,12.473689 
	C150.332870,8.704618 151.084686,4.828125 152.000000,1.000000 
z"/>
<path fill="#7CC053" opacity="1.000000" stroke="none" 
	d="
M154.468643,76.000000 
	C154.261597,74.393341 153.998352,72.379890 154.874466,71.249527 
	C158.950333,65.990791 158.068329,59.699512 159.446991,53.238602 
	C162.887939,52.628639 165.893814,52.736404 168.866074,52.469601 
	C175.296066,51.892406 177.566528,46.909260 174.063950,41.553242 
	C173.480179,40.660538 173.077957,39.210987 173.369049,38.255535 
	C175.228683,32.151443 174.346375,30.457766 167.996429,28.704090 
	C168.779572,26.274252 169.582199,23.850470 170.339523,21.412611 
	C170.917038,19.553534 171.464310,17.684042 171.977310,15.806142 
	C173.262390,11.101889 174.520386,6.390234 175.894623,1.340774 
	C183.020950,1.000000 190.041901,1.000000 197.531433,1.000000 
	C196.966721,5.473182 195.884903,9.935837 194.911972,14.422107 
	C193.577408,20.575968 192.325424,26.747736 190.675446,33.578156 
	C190.130371,37.494957 189.947906,40.745441 189.414368,44.046650 
	C187.016602,44.731907 184.969910,45.366436 182.828461,45.548561 
	C182.691376,42.123966 182.812988,39.135143 182.514008,36.189007 
	C182.415070,35.214104 181.232559,34.349167 180.545486,33.433952 
	C180.032623,34.325211 179.127991,35.194805 179.077286,36.111626 
	C178.895126,39.405125 179.081604,42.717113 178.977356,46.017330 
	C178.861832,49.674488 180.369934,52.020557 184.000549,52.872955 
	C182.800552,57.080860 181.443375,61.252171 180.452606,65.508781 
	C179.720932,68.652229 179.467010,71.906883 179.000122,75.556000 
	C170.979095,76.000000 162.958191,76.000000 154.468643,76.000000 
z"/>
<path fill="#77BF56" opacity="1.000000" stroke="none" 
	d="
M151.531372,1.000000 
	C151.084686,4.828125 150.332870,8.704618 149.217941,12.473689 
	C147.266342,19.071163 145.091782,25.602682 142.699722,32.718422 
	C140.611694,37.014954 138.834579,40.754890 137.067276,44.474190 
	C132.645798,41.796757 134.953400,34.544491 127.406052,32.935925 
	C129.748581,39.180393 131.556580,44.237152 133.544739,49.222054 
	C135.040985,52.973564 134.376450,55.633064 130.354416,57.103519 
	C129.737610,57.329025 129.299454,58.043152 128.049576,59.214672 
	C130.282745,59.632015 131.643066,59.886238 133.003387,60.140461 
	C132.621887,65.191887 132.240387,70.243317 131.929443,75.647369 
	C124.312424,76.000000 116.624847,76.000000 108.468636,76.000000 
	C108.843719,72.714195 109.787445,69.450073 110.505913,66.137108 
	C111.409813,61.968975 112.129486,57.760895 113.305267,53.055931 
	C114.839066,51.078373 116.237152,49.742802 117.097527,48.121819 
	C118.420738,45.628841 119.374756,42.939911 120.485420,40.334118 
	C120.973434,40.438282 121.461456,40.542450 121.949471,40.646614 
	C121.949471,43.389503 121.763718,46.150940 122.034859,48.866756 
	C122.154381,50.063915 123.202087,51.168407 123.828400,52.314964 
	C124.500145,51.211922 125.705597,50.130882 125.752144,49.002060 
	C125.964569,43.850681 125.662132,38.676460 125.918312,33.529037 
	C126.107468,29.728212 124.675713,28.286663 120.995842,28.945169 
	C121.862839,24.988924 122.616692,21.003580 123.624893,17.083652 
	C124.945656,11.948479 126.467224,6.864952 127.951210,1.379605 
	C135.687576,1.000000 143.375168,1.000000 151.531372,1.000000 
z"/>
<path fill="#E7F4E5" opacity="1.000000" stroke="none" 
	d="
M46.531265,28.799221 
	C50.998199,30.247644 53.937630,33.053036 52.399029,37.317547 
	C51.524197,39.742298 48.565887,42.460381 46.068916,43.059853 
	C38.429886,44.893818 38.340099,44.519833 37.072220,52.304604 
	C35.829948,51.723900 33.871452,50.833508 33.833107,49.866936 
	C33.563801,43.078709 33.690338,36.274773 33.690338,28.849379 
	C38.172134,28.849379 42.121235,28.849379 46.531265,28.799221 
M38.773399,32.124908 
	C37.320721,35.164394 35.968586,38.770451 39.950203,40.296799 
	C42.059376,41.105343 45.283169,39.671474 47.704723,38.583996 
	C48.407185,38.268532 48.732635,34.712879 48.092945,34.263897 
	C46.245296,32.967072 43.834366,32.444576 41.607132,31.735807 
	C41.021183,31.549341 40.299339,31.789917 38.773399,32.124908 
z"/>
<path fill="#E6F4E2" opacity="1.000000" stroke="none" 
	d="
M84.461868,39.032913 
	C86.064148,37.048801 85.032974,32.712627 90.670563,33.751431 
	C87.308784,41.963028 84.277077,49.849197 80.755836,57.510368 
	C80.147636,58.833618 77.462807,59.202404 75.364311,60.100346 
	C75.255844,59.127529 75.211121,57.404408 75.834999,57.113075 
	C79.802391,55.260426 79.966721,52.498661 78.514809,48.901409 
	C76.550774,44.035267 74.803772,39.081528 72.902542,34.002102 
	C76.523720,33.761112 76.523720,33.761112 80.213791,42.959538 
	C80.874863,44.291512 81.315788,44.978394 82.252342,46.437393 
	C82.879128,44.110561 83.272957,42.648533 83.666786,41.186508 
	C83.933647,40.554707 84.200500,39.922905 84.461868,39.032913 
z"/>
<path fill="#E9F5E6" opacity="1.000000" stroke="none" 
	d="
M64.962173,51.702358 
	C58.291237,53.363155 54.978825,51.758759 55.065746,46.842159 
	C55.142845,42.480755 58.296612,41.008816 61.807930,40.059464 
	C63.041061,39.726059 64.384499,39.800636 65.755913,39.682152 
	C64.636879,36.867519 64.636879,36.867519 56.857979,38.542767 
	C57.030804,34.650284 58.296864,33.471352 62.555828,33.237015 
	C67.542664,32.962627 70.259827,34.866722 70.728943,39.223705 
	C71.100334,42.673111 71.206902,46.151028 71.706711,50.277565 
	C71.999168,51.360500 72.015968,51.782146 72.032768,52.203796 
	C70.941643,52.174137 69.850525,52.144474 68.303497,51.569019 
	C67.008789,50.255802 66.169998,49.488380 65.510757,48.389790 
	C66.117279,46.716530 66.544228,45.374439 67.052841,43.775669 
	C63.251026,42.923359 59.809456,42.130035 58.992268,46.555897 
	C58.355137,50.006584 61.279079,49.930614 63.898373,50.041649 
	C64.381317,50.733967 64.671745,51.218163 64.962173,51.702358 
z"/>
<path fill="#71BD57" opacity="1.000000" stroke="none" 
	d="
M83.213501,41.328503 
	C83.272957,42.648533 82.879128,44.110561 82.252342,46.437393 
	C81.315788,44.978394 80.874863,44.291512 80.399963,43.292023 
	C81.164070,42.476444 81.962143,41.973473 83.213501,41.328503 
z"/>
<path fill="#E0F1DC" opacity="1.000000" stroke="none" 
	d="
M65.242172,51.701290 
	C64.671745,51.218163 64.381317,50.733967 64.058716,49.848434 
	C64.461433,49.205044 64.896317,48.963001 65.331200,48.720955 
	C66.169998,49.488380 67.008789,50.255802 67.938339,51.366184 
	C67.193443,51.706169 66.357803,51.703197 65.242172,51.701290 
z"/>
<path fill="#E0F1DC" opacity="1.000000" stroke="none" 
	d="
M72.283379,52.199760 
	C72.015968,51.782146 71.999168,51.360500 71.975929,50.622475 
	C72.157661,50.935974 72.345825,51.565853 72.283379,52.199760 
z"/>
<path fill="#E5F2D8" opacity="1.000000" stroke="none" 
	d="
M240.183746,59.517952 
	C238.334656,59.628193 236.687546,59.487797 234.268066,59.281567 
	C241.072128,53.539116 241.064346,53.542019 238.036896,45.427940 
	C236.817139,42.158730 235.624466,38.879120 234.461304,35.589447 
	C234.305283,35.148212 234.395828,34.619804 234.372589,34.140079 
	C236.439209,33.772915 236.439209,33.772915 242.735779,45.783585 
	C244.734329,41.383713 246.569168,37.344280 248.702301,33.135277 
	C249.621323,33.737240 250.941193,34.799610 250.759171,35.237194 
	C247.408447,43.291779 243.878113,51.271641 240.183746,59.517952 
z"/>
<path fill="#E6F3E1" opacity="1.000000" stroke="none" 
	d="
M120.825256,29.256329 
	C124.675713,28.286663 126.107468,29.728212 125.918312,33.529037 
	C125.662132,38.676460 125.964569,43.850681 125.752144,49.002060 
	C125.705597,50.130882 124.500145,51.211922 123.828400,52.314964 
	C123.202087,51.168407 122.154381,50.063915 122.034859,48.866756 
	C121.763718,46.150940 121.949471,43.389503 121.949471,40.646614 
	C121.461456,40.542450 120.973434,40.438282 120.485420,40.334118 
	C119.374756,42.939911 118.420738,45.628841 117.097527,48.121819 
	C116.237152,49.742802 114.839066,51.078373 113.349686,52.626060 
	C110.999084,48.411015 108.980675,44.111729 106.962273,39.812443 
	C106.501762,39.822258 106.041260,39.832069 105.580750,39.841881 
	C105.580750,42.987827 105.723587,46.143944 105.500633,49.274010 
	C105.426033,50.321365 104.417549,51.302197 103.835953,52.313431 
	C103.187248,51.366116 102.005783,50.434586 101.977173,49.468899 
	C101.804535,43.642010 101.806465,37.804585 101.983246,31.977766 
	C102.014160,30.958691 103.304367,29.065273 103.749313,29.140253 
	C105.154907,29.377131 107.129623,30.026941 107.642838,31.106899 
	C109.759079,35.560093 111.417236,40.230976 114.480309,44.974880 
	C116.538429,39.839085 118.596542,34.703285 120.825256,29.256329 
z"/>
<path fill="#E8F3DE" opacity="1.000000" stroke="none" 
	d="
M219.905640,33.556019 
	C222.562958,33.344986 225.014816,33.344986 226.968903,33.344986 
	C228.071381,31.154131 229.083267,29.143324 230.095139,27.132515 
	C230.753021,29.580807 231.857925,32.007236 231.978958,34.481792 
	C232.260788,40.243401 232.068787,46.028183 232.068787,51.732014 
	C217.144547,53.518475 214.578369,51.184868 216.511108,37.635799 
	C217.609238,36.049171 218.654709,34.908112 219.905640,33.556019 
M220.558990,47.427448 
	C222.347244,47.991920 224.135513,48.556393 225.923767,49.120869 
	C226.570068,45.898102 227.627686,42.676464 227.636551,39.451935 
	C227.639618,38.343166 225.145355,36.699219 223.554443,36.333809 
	C222.740128,36.146770 220.718246,38.093182 220.447189,39.337814 
	C219.937302,41.679024 220.301178,44.210526 220.558990,47.427448 
z"/>
<path fill="#E9F4E1" opacity="1.000000" stroke="none" 
	d="
M213.382538,36.552658 
	C213.351822,40.367584 213.236206,43.739147 212.870880,47.884132 
	C212.417557,49.844116 212.213928,51.030678 212.010315,52.217239 
	C209.903076,52.308773 207.789841,52.328995 205.689804,52.505966 
	C200.560349,52.938225 197.814331,50.905495 197.314789,45.734093 
	C197.081070,43.314556 197.202667,40.733528 197.799927,38.387802 
	C198.983978,33.737530 201.292816,32.838791 208.842560,33.602276 
	C209.021759,32.349594 208.992462,31.000244 209.447632,29.841137 
	C209.845291,28.828497 210.788330,28.030022 211.490417,27.136925 
	C212.056992,28.145470 212.956879,29.103962 213.117493,30.173470 
	C213.409378,32.117264 213.261795,34.127052 213.382538,36.552658 
M201.202667,40.937321 
	C201.181992,41.433975 201.111542,41.934387 201.148773,42.426662 
	C201.377869,45.455612 200.555908,49.602226 205.141113,49.573483 
	C209.954178,49.543312 209.145935,45.262466 209.365677,42.056145 
	C209.388153,41.728226 209.451889,41.317055 209.294510,41.076748 
	C208.208618,39.418530 207.069061,37.795433 205.946762,36.161030 
	C204.398178,37.481876 202.849594,38.802723 201.202667,40.937321 
z"/>
<path fill="#EDF6E7" opacity="1.000000" stroke="none" 
	d="
M189.765442,43.995918 
	C189.947906,40.745441 190.130371,37.494957 190.654037,33.968216 
	C191.734879,34.771019 193.061188,35.822624 193.113190,36.933868 
	C193.345505,41.897385 193.214157,46.877922 193.214157,51.880260 
	C190.211563,52.152687 187.481323,52.400406 184.375824,52.760540 
	C180.369934,52.020557 178.861832,49.674488 178.977356,46.017330 
	C179.081604,42.717113 178.895126,39.405125 179.077286,36.111626 
	C179.127991,35.194805 180.032623,34.325211 180.545486,33.433952 
	C181.232559,34.349167 182.415070,35.214104 182.514008,36.189007 
	C182.812988,39.135143 182.691376,42.123966 182.813263,45.971214 
	C184.323410,47.754780 185.753983,48.663284 187.184540,49.571789 
	C188.044830,47.713161 188.905136,45.854538 189.765442,43.995918 
z"/>
<path fill="#E7F3DE" opacity="1.000000" stroke="none" 
	d="
M212.259338,52.288223 
	C212.213928,51.030678 212.417557,49.844116 212.790329,48.338028 
	C213.015701,49.273159 213.071899,50.527821 213.075623,52.099174 
	C212.851547,52.396984 212.679947,52.378094 212.259338,52.288223 
z"/>
<path fill="#EAF5E4" opacity="1.000000" stroke="none" 
	d="
M167.541946,28.766174 
	C174.346375,30.457766 175.228683,32.151443 173.369049,38.255535 
	C173.077957,39.210987 173.480179,40.660538 174.063950,41.553242 
	C177.566528,46.909260 175.296066,51.892406 168.866074,52.469601 
	C165.893814,52.736404 162.887939,52.628639 159.449783,52.798164 
	C158.244080,51.961407 156.855423,51.034592 156.828781,50.070171 
	C156.639145,43.201977 156.727692,36.326092 156.727692,28.828259 
	C160.582092,28.828259 163.834778,28.828259 167.541946,28.766174 
M167.751465,49.637295 
	C170.514923,49.043568 173.176407,47.090271 171.398407,44.712982 
	C169.964905,42.796303 166.204544,42.340332 163.377747,41.948242 
	C162.698593,41.854042 161.022964,44.512756 160.847168,46.026398 
	C160.245651,51.204739 164.310410,49.408344 167.751465,49.637295 
M161.763550,38.583950 
	C162.579407,38.676098 163.403488,38.891647 164.209641,38.838020 
	C167.000183,38.652393 170.587204,38.778812 170.155090,34.770817 
	C169.730469,30.832487 165.981598,31.558487 163.381058,31.851061 
	C159.104691,32.332172 161.059601,35.606983 161.763550,38.583950 
z"/>
<path fill="#E2F1DB" opacity="1.000000" stroke="none" 
	d="
M133.269806,59.927513 
	C131.643066,59.886238 130.282745,59.632015 128.049576,59.214672 
	C129.299454,58.043152 129.737610,57.329025 130.354416,57.103519 
	C134.376450,55.633064 135.040985,52.973564 133.544739,49.222054 
	C131.556580,44.237152 129.748581,39.180393 127.406052,32.935925 
	C134.953400,34.544491 132.645798,41.796757 137.067276,44.474190 
	C138.834579,40.754890 140.611694,37.014954 142.694595,33.118176 
	C143.642181,33.735710 144.995941,34.781914 144.819565,35.243893 
	C141.932159,42.806206 138.890961,50.311283 135.758026,57.776226 
	C135.416550,58.589851 134.295609,59.076344 133.269806,59.927513 
z"/>
<path fill="#80C151" opacity="1.000000" stroke="none" 
	d="
M189.414352,44.046646 
	C188.905136,45.854538 188.044830,47.713161 187.184540,49.571789 
	C185.753983,48.663284 184.323410,47.754780 182.908051,46.423618 
	C184.969910,45.366436 187.016602,44.731907 189.414352,44.046646 
z"/>
<path fill="#73C066" opacity="1.000000" stroke="none" 
	d="
M39.206650,31.979649 
	C40.299339,31.789917 41.021183,31.549341 41.607132,31.735807 
	C43.834366,32.444576 46.245296,32.967072 48.092945,34.263897 
	C48.732635,34.712879 48.407185,38.268532 47.704723,38.583996 
	C45.283169,39.671474 42.059376,41.105343 39.950203,40.296799 
	C35.968586,38.770451 37.320721,35.164394 39.206650,31.979649 
z"/>
<path fill="#7EC46D" opacity="1.000000" stroke="none" 
	d="
M65.510757,48.389793 
	C64.896317,48.963001 64.461433,49.205044 63.866203,49.640308 
	C61.279079,49.930614 58.355137,50.006584 58.992268,46.555897 
	C59.809456,42.130035 63.251026,42.923359 67.052841,43.775669 
	C66.544228,45.374439 66.117279,46.716530 65.510757,48.389793 
z"/>
<path fill="#8CC65C" opacity="1.000000" stroke="none" 
	d="
M220.430389,47.045181 
	C220.301178,44.210526 219.937302,41.679024 220.447189,39.337814 
	C220.718246,38.093182 222.740128,36.146770 223.554443,36.333809 
	C225.145355,36.699219 227.639618,38.343166 227.636551,39.451935 
	C227.627686,42.676464 226.570068,45.898102 225.923767,49.120869 
	C224.135513,48.556393 222.347244,47.991920 220.430389,47.045181 
z"/>
<path fill="#89C55C" opacity="1.000000" stroke="none" 
	d="
M201.251831,40.530449 
	C202.849594,38.802723 204.398178,37.481876 205.946762,36.161034 
	C207.069061,37.795433 208.208618,39.418530 209.294510,41.076748 
	C209.451889,41.317055 209.388153,41.728226 209.365677,42.056145 
	C209.145935,45.262466 209.954178,49.543312 205.141113,49.573483 
	C200.555908,49.602226 201.377869,45.455612 201.148773,42.426662 
	C201.111542,41.934387 201.181992,41.433975 201.251831,40.530449 
z"/>
<path fill="#83C35D" opacity="1.000000" stroke="none" 
	d="
M167.339859,49.676407 
	C164.310410,49.408344 160.245651,51.204739 160.847168,46.026398 
	C161.022964,44.512756 162.698593,41.854042 163.377747,41.948242 
	C166.204544,42.340332 169.964905,42.796303 171.398407,44.712982 
	C173.176407,47.090271 170.514923,49.043568 167.339859,49.676407 
z"/>
<path fill="#83C35D" opacity="1.000000" stroke="none" 
	d="
M161.449066,38.278458 
	C161.059601,35.606983 159.104691,32.332172 163.381058,31.851061 
	C165.981598,31.558487 169.730469,30.832487 170.155090,34.770817 
	C170.587204,38.778812 167.000183,38.652393 164.209641,38.838020 
	C163.403488,38.891647 162.579407,38.676098 161.449066,38.278458 
z"/>
</svg>